<svg width="24" height="23" viewBox="0 0 24 23" xmlns="http://www.w3.org/2000/svg">
<path d="M13.8713 5.47343C13.8138 5.47363 13.7572 5.4587 13.7073 5.43014L11.9686 4.42295L10.2232 5.43014C10.1857 5.45168 10.1445 5.46565 10.1017 5.47124C10.0589 5.47683 10.0154 5.47394 9.97369 5.46272C9.932 5.45151 9.89294 5.43219 9.85872 5.40588C9.8245 5.37957 9.79579 5.34677 9.77425 5.30937C9.7527 5.27196 9.73874 5.23068 9.73315 5.18787C9.72755 5.14507 9.73045 5.10159 9.74166 5.0599C9.75288 5.01822 9.77219 4.97915 9.79851 4.94493C9.82482 4.91071 9.85762 4.88201 9.89502 4.86046L11.8046 3.76441C11.8544 3.73539 11.911 3.72009 11.9686 3.72009C12.0263 3.72009 12.0829 3.73539 12.1327 3.76441L14.0354 4.86502C14.0983 4.90099 14.1475 4.95676 14.1754 5.02363C14.2033 5.0905 14.2082 5.16472 14.1895 5.2347C14.1708 5.30468 14.1294 5.3665 14.0718 5.41051C14.0143 5.45452 13.9438 5.47825 13.8713 5.47799" />
<path d="M11.9687 14.1302C11.9246 14.1302 11.881 14.1214 11.8404 14.1042C11.7998 14.087 11.7631 14.0618 11.7325 14.0301C11.7019 13.9984 11.678 13.9609 11.6621 13.9198C11.6463 13.8786 11.639 13.8347 11.6405 13.7907V11.5986C11.6405 11.5116 11.6751 11.4281 11.7366 11.3666C11.7982 11.305 11.8816 11.2704 11.9687 11.2704C12.0557 11.2704 12.1391 11.305 12.2007 11.3666C12.2622 11.4281 12.2968 11.5116 12.2968 11.5986V13.7907C12.2968 13.8777 12.2622 13.9612 12.2007 14.0227C12.1391 14.0842 12.0557 14.1188 11.9687 14.1188" />
<path d="M5.42652 10.3476C5.3395 10.3476 5.25603 10.313 5.1945 10.2515C5.13296 10.1899 5.09839 10.1065 5.09839 10.0194V7.81821C5.09839 7.73119 5.13296 7.64773 5.1945 7.58619C5.25603 7.52465 5.3395 7.49008 5.42652 7.49008C5.51355 7.49008 5.59701 7.52465 5.65855 7.58619C5.72008 7.64773 5.75465 7.73119 5.75465 7.81821V10.0194C5.75465 10.1065 5.72008 10.1899 5.65855 10.2515C5.59701 10.313 5.51355 10.3476 5.42652 10.3476Z" />
<path d="M18.5017 10.3476C18.4146 10.3476 18.3312 10.313 18.2696 10.2515C18.2081 10.1899 18.1735 10.1065 18.1735 10.0194V7.81821C18.1735 7.73119 18.2081 7.64773 18.2696 7.58619C18.3312 7.52465 18.4146 7.49008 18.5017 7.49008C18.5887 7.49008 18.6721 7.52465 18.7337 7.58619C18.7952 7.64773 18.8298 7.73119 18.8298 7.81821V10.0194C18.8298 10.1065 18.7952 10.1899 18.7337 10.2515C18.6721 10.313 18.5887 10.3476 18.5017 10.3476Z" />
<path d="M18.5017 15.7071C18.4158 15.7071 18.3334 15.6734 18.272 15.6134C18.2107 15.5533 18.1753 15.4716 18.1735 15.3858V13.1754C18.1735 13.0884 18.2081 13.0049 18.2696 12.9434C18.3312 12.8819 18.4146 12.8473 18.5017 12.8473C18.5887 12.8473 18.6721 12.8819 18.7337 12.9434C18.7952 13.0049 18.8298 13.0884 18.8298 13.1754V15.3858C18.8298 15.4728 18.7952 15.5562 18.7337 15.6178C18.6721 15.6793 18.5887 15.7139 18.5017 15.7139V15.7071Z" />
<path d="M5.42652 15.7071C5.34067 15.7071 5.25822 15.6734 5.19688 15.6134C5.13554 15.5533 5.10018 15.4716 5.09839 15.3858V13.1754C5.09839 13.0884 5.13296 13.0049 5.1945 12.9434C5.25603 12.8819 5.3395 12.8473 5.42652 12.8473C5.51355 12.8473 5.59701 12.8819 5.65855 12.9434C5.72008 13.0049 5.75465 13.0884 5.75465 13.1754V15.3858C5.75465 15.4728 5.72008 15.5562 5.65855 15.6178C5.59701 15.6793 5.51355 15.7139 5.42652 15.7139" />
<path d="M11.9686 6.77228C11.8816 6.77228 11.7981 6.73771 11.7366 6.67618C11.6751 6.61464 11.6405 6.53118 11.6405 6.44415V4.04468C11.6405 3.95766 11.6751 3.8742 11.7366 3.81266C11.7981 3.75112 11.8816 3.71655 11.9686 3.71655C12.0557 3.71655 12.1391 3.75112 12.2007 3.81266C12.2622 3.8742 12.2968 3.95766 12.2968 4.04468V6.44415C12.2968 6.53118 12.2622 6.61464 12.2007 6.67618C12.1391 6.73771 12.0557 6.77228 11.9686 6.77228Z" />
<path d="M11.9686 19.4874C11.8816 19.4874 11.7981 19.4528 11.7366 19.3913C11.6751 19.3298 11.6405 19.2463 11.6405 19.1593V16.9603C11.6405 16.8733 11.6751 16.7898 11.7366 16.7283C11.7981 16.6668 11.8816 16.6322 11.9686 16.6322C12.0557 16.6322 12.1391 16.6668 12.2007 16.7283C12.2622 16.7898 12.2968 16.8733 12.2968 16.9603V19.1616C12.2968 19.2486 12.2622 19.332 12.2007 19.3936C12.1391 19.4551 12.0557 19.4897 11.9686 19.4897" />
<path d="M11.9686 19.4874C11.9111 19.4875 11.8546 19.4726 11.8046 19.4441L9.88364 18.3481C9.84623 18.3265 9.81344 18.2978 9.78712 18.2636C9.76081 18.2294 9.74149 18.1903 9.73028 18.1486C9.71907 18.1069 9.71617 18.0635 9.72176 18.0207C9.72735 17.9779 9.74132 17.9366 9.76287 17.8992C9.78441 17.8618 9.81311 17.829 9.84733 17.8027C9.88155 17.7763 9.92062 17.757 9.9623 17.7458C10.004 17.7346 10.0475 17.7317 10.0903 17.7373C10.1331 17.7429 10.1744 17.7569 10.2118 17.7784L11.9641 18.7924L13.6913 17.7921C13.7662 17.7536 13.853 17.7454 13.9338 17.7692C14.0146 17.7929 14.0831 17.8468 14.1253 17.9197C14.1674 17.9926 14.1799 18.0789 14.1602 18.1607C14.1406 18.2426 14.0902 18.3137 14.0195 18.3595L12.1282 19.4555C12.0782 19.4842 12.0216 19.4991 11.9641 19.4988" />
<path d="M11.9686 11.9267C11.9111 11.9268 11.8546 11.9119 11.8046 11.8834L9.88364 10.7805C9.84623 10.759 9.81344 10.7303 9.78712 10.6961C9.76081 10.6619 9.74149 10.6228 9.73028 10.5811C9.71907 10.5394 9.71617 10.4959 9.72176 10.4531C9.72735 10.4103 9.74132 10.369 9.76287 10.3316C9.78441 10.2942 9.81311 10.2614 9.84733 10.2351C9.88155 10.2088 9.92062 10.1895 9.9623 10.1783C10.004 10.1671 10.0475 10.1642 10.0903 10.1698C10.1331 10.1754 10.1744 10.1893 10.2118 10.2109L11.9573 11.218L13.6959 10.2109C13.7708 10.1724 13.8576 10.1642 13.9384 10.188C14.0191 10.2117 14.0877 10.2656 14.1298 10.3385C14.172 10.4114 14.1845 10.4977 14.1648 10.5795C14.1451 10.6614 14.0947 10.7325 14.024 10.7783L12.1213 11.8811C12.0714 11.9098 12.0148 11.9248 11.9573 11.9244" />
<path d="M16.5944 9.24924C16.522 9.2495 16.4515 9.22577 16.3939 9.18176C16.3364 9.13776 16.295 9.07594 16.2763 9.00595C16.2575 8.93597 16.2625 8.86175 16.2904 8.79488C16.3182 8.72801 16.3674 8.67224 16.4303 8.63627L18.3353 7.53566C18.4109 7.49215 18.5006 7.48043 18.5848 7.50308C18.669 7.52573 18.7407 7.58089 18.7842 7.65643C18.8277 7.73198 18.8395 7.82171 18.8168 7.9059C18.7942 7.99008 18.739 8.06182 18.6635 8.10534L16.7585 9.20595C16.7085 9.23451 16.6519 9.24945 16.5944 9.24924Z" />
<path d="M18.4994 8.14636C18.4419 8.14667 18.3852 8.13173 18.3353 8.10306L16.4281 7.00017C16.3525 6.95666 16.2974 6.88492 16.2747 6.80074C16.2521 6.71655 16.2638 6.62681 16.3073 6.55127C16.3508 6.47573 16.4226 6.42056 16.5067 6.39791C16.5909 6.37527 16.6807 6.38699 16.7562 6.4305L18.6635 7.53339C18.7264 7.56936 18.7756 7.62512 18.8034 7.692C18.8313 7.75887 18.8363 7.83309 18.8175 7.90307C18.7988 7.97305 18.7574 8.03487 18.6999 8.07888C18.6423 8.12289 18.5719 8.14662 18.4994 8.14636Z" />
<path d="M7.33151 9.24925C7.27397 9.24946 7.21739 9.23452 7.16744 9.20596L5.26245 8.09396C5.18691 8.05044 5.13175 7.9787 5.1091 7.89452C5.08645 7.81033 5.09817 7.7206 5.14168 7.64505C5.1852 7.56951 5.25694 7.51434 5.34112 7.4917C5.42531 7.46905 5.51504 7.48077 5.59059 7.52428L7.49785 8.62489C7.56074 8.66086 7.60996 8.71663 7.63783 8.7835C7.6657 8.85037 7.67066 8.92459 7.65192 8.99457C7.63319 9.06456 7.59183 9.12637 7.53428 9.17038C7.47673 9.21439 7.40623 9.23812 7.33379 9.23786" />
<path d="M5.42653 8.14635C5.35408 8.1466 5.28358 8.12288 5.22603 8.07887C5.16848 8.03486 5.12712 7.97304 5.10839 7.90306C5.08966 7.83307 5.09461 7.75886 5.12248 7.69199C5.15035 7.62511 5.19957 7.56935 5.26246 7.53338L7.16745 6.43505C7.24299 6.39153 7.33273 6.37981 7.41691 6.40246C7.5011 6.42511 7.57284 6.48027 7.61635 6.55582C7.65986 6.63136 7.67159 6.7211 7.64894 6.80528C7.62629 6.88947 7.57112 6.96121 7.49558 7.00472L5.59059 8.09394C5.5406 8.12241 5.48405 8.13733 5.42653 8.13723" />
<path d="M16.5921 16.8077C16.5197 16.8079 16.4492 16.7842 16.3916 16.7402C16.3341 16.6962 16.2927 16.6344 16.274 16.5644C16.2552 16.4944 16.2602 16.4202 16.2881 16.3533C16.3159 16.2865 16.3652 16.2307 16.428 16.1947L18.3376 15.0941C18.4131 15.0506 18.5029 15.0389 18.5871 15.0615C18.6712 15.0842 18.743 15.1393 18.7865 15.2149C18.83 15.2904 18.8417 15.3802 18.8191 15.4643C18.7964 15.5485 18.7413 15.6203 18.6657 15.6638L16.7562 16.7644C16.7062 16.793 16.6497 16.8079 16.5921 16.8077Z" />
<path d="M18.5017 15.7071C18.4441 15.7074 18.3875 15.6924 18.3376 15.6638L16.4303 14.5632C16.3548 14.5196 16.2996 14.4479 16.277 14.3637C16.2543 14.2795 16.266 14.1898 16.3096 14.1143C16.3531 14.0387 16.4248 13.9836 16.509 13.9609C16.5932 13.9383 16.6829 13.95 16.7585 13.9935L18.6657 15.0941C18.7286 15.1301 18.7778 15.1858 18.8057 15.2527C18.8336 15.3196 18.8385 15.3938 18.8198 15.4638C18.8011 15.5338 18.7597 15.5956 18.7022 15.6396C18.6446 15.6836 18.5741 15.7073 18.5017 15.7071Z" />
<path d="M7.3315 16.81C7.27396 16.8102 7.21738 16.7952 7.16743 16.7667L5.26016 15.6638C5.18462 15.6203 5.12946 15.5485 5.10681 15.4643C5.08416 15.3802 5.09588 15.2904 5.13939 15.2149C5.18291 15.1393 5.25465 15.0842 5.33883 15.0615C5.42302 15.0389 5.51275 15.0506 5.5883 15.0941L7.49556 16.197C7.55845 16.233 7.60767 16.2887 7.63554 16.3556C7.66341 16.4225 7.66837 16.4967 7.64964 16.5667C7.6309 16.6367 7.58954 16.6985 7.53199 16.7425C7.47444 16.7865 7.40395 16.8102 7.3315 16.81Z" />
<path d="M5.42653 15.7071C5.35408 15.7073 5.28358 15.6836 5.22603 15.6396C5.16848 15.5956 5.12712 15.5338 5.10839 15.4638C5.08966 15.3938 5.09461 15.3196 5.12248 15.2527C5.15035 15.1858 5.19957 15.1301 5.26246 15.0941L7.16517 13.9912C7.24071 13.9477 7.33045 13.936 7.41463 13.9586C7.49882 13.9813 7.57056 14.0364 7.61407 14.112C7.65759 14.1875 7.66931 14.2772 7.64666 14.3614C7.62401 14.4456 7.56885 14.5174 7.4933 14.5609L5.59059 15.6615C5.54064 15.6901 5.48406 15.705 5.42653 15.7048" />
<g opacity="0.2">
<path d="M5.4265 8.00507C5.38478 8.00664 5.34373 7.99419 5.30992 7.9697C5.2761 7.94522 5.25145 7.91012 5.23991 7.86999C5.22838 7.82987 5.23061 7.78704 5.24625 7.74833C5.2619 7.70962 5.29006 7.67727 5.32623 7.65643L11.8684 3.88063C11.9112 3.85686 11.9617 3.85088 12.0089 3.86396C12.0561 3.87705 12.0963 3.90816 12.1208 3.95059C12.1453 3.99302 12.1522 4.04338 12.1399 4.09082C12.1276 4.13826 12.0972 4.17898 12.0552 4.20421L5.51992 7.98001C5.49152 7.99642 5.4593 8.00506 5.4265 8.00507Z" />
</g>
<g opacity="0.2">
<path d="M5.4265 15.5658C5.38478 15.5674 5.34373 15.5549 5.30992 15.5304C5.2761 15.506 5.25145 15.4708 5.23991 15.4307C5.22838 15.3906 5.23061 15.3478 5.24625 15.3091C5.2619 15.2704 5.29006 15.238 5.32623 15.2172L18.4059 7.65645C18.4488 7.63268 18.4993 7.6267 18.5465 7.63978C18.5937 7.65287 18.6339 7.68398 18.6584 7.72641C18.6829 7.76884 18.6898 7.8192 18.6775 7.86664C18.6652 7.91407 18.6348 7.95479 18.5928 7.98002L5.51992 15.5407C5.49152 15.5571 5.4593 15.5658 5.4265 15.5658Z" />
</g>
<g opacity="0.2">
<path d="M18.4994 8.00508C18.4666 8.00507 18.4344 7.99643 18.406 7.98002L11.873 4.2065C11.831 4.18126 11.8005 4.14054 11.7883 4.09311C11.776 4.04567 11.7829 3.99531 11.8074 3.95288C11.8319 3.91045 11.8721 3.87934 11.9193 3.86625C11.9665 3.85317 12.017 3.85915 12.0598 3.88292L18.5928 7.65872C18.6284 7.67929 18.6563 7.71104 18.672 7.74903C18.6877 7.78703 18.6905 7.82915 18.6798 7.86887C18.6692 7.90859 18.6457 7.94369 18.6131 7.96873C18.5805 7.99377 18.5405 8.00735 18.4994 8.00736" />
</g>
<g opacity="0.2">
<path d="M18.5017 15.5658C18.4689 15.5659 18.4366 15.5573 18.4083 15.5407L5.32626 7.98002C5.28426 7.95479 5.25385 7.91407 5.24158 7.86664C5.22931 7.8192 5.23617 7.76884 5.26067 7.72641C5.28517 7.68398 5.32536 7.65287 5.37258 7.63978C5.4198 7.6267 5.47027 7.63268 5.51311 7.65645L18.5883 15.2172C18.6239 15.2377 18.6517 15.2695 18.6674 15.3075C18.6832 15.3455 18.6859 15.3876 18.6753 15.4273C18.6646 15.467 18.6412 15.5021 18.6086 15.5272C18.5759 15.5522 18.536 15.5658 18.4948 15.5658" />
</g>
<g opacity="0.2">
<path d="M11.9664 19.3507C11.9336 19.3507 11.9014 19.342 11.873 19.3256L5.32626 15.5407C5.28426 15.5155 5.25385 15.4748 5.24158 15.4273C5.22931 15.3799 5.23617 15.3295 5.26067 15.2871C5.28517 15.2447 5.32536 15.2136 5.37258 15.2005C5.4198 15.1874 5.47027 15.1934 5.51311 15.2172L12.0553 19.0021C12.0909 19.0226 12.1187 19.0544 12.1344 19.0924C12.1501 19.1304 12.1529 19.1725 12.1423 19.2122C12.1316 19.2519 12.1082 19.287 12.0755 19.3121C12.0429 19.3371 12.0029 19.3507 11.9618 19.3507" />
</g>
<g opacity="0.2">
<path d="M11.9687 19.3507C11.9275 19.3507 11.8876 19.3371 11.8549 19.3121C11.8223 19.287 11.7989 19.2519 11.7882 19.2122C11.7776 19.1725 11.7803 19.1304 11.7961 19.0924C11.8118 19.0544 11.8396 19.0226 11.8752 19.0021L18.406 15.2172C18.4488 15.1934 18.4993 15.1874 18.5465 15.2005C18.5937 15.2136 18.6339 15.2447 18.6584 15.2871C18.6829 15.3295 18.6898 15.3799 18.6775 15.4273C18.6652 15.4748 18.6348 15.5155 18.5928 15.5407L12.0598 19.3256C12.0314 19.342 11.9992 19.3507 11.9664 19.3507" />
</g>
<g opacity="0.2">
<path d="M5.42651 15.5658C5.37695 15.5658 5.32942 15.5461 5.29438 15.5111C5.25934 15.476 5.23965 15.4285 5.23965 15.3789V7.81823C5.23965 7.76867 5.25934 7.72115 5.29438 7.68611C5.32942 7.65106 5.37695 7.63138 5.42651 7.63138C5.47606 7.63138 5.52359 7.65106 5.55863 7.68611C5.59367 7.72115 5.61336 7.76867 5.61336 7.81823V15.3858C5.61336 15.4353 5.59367 15.4829 5.55863 15.5179C5.52359 15.5529 5.47606 15.5726 5.42651 15.5726" />
</g>
<g opacity="0.2">
<path d="M18.5017 15.5658C18.4533 15.5658 18.4068 15.5471 18.3719 15.5135C18.3371 15.4799 18.3166 15.4341 18.3148 15.3858V7.81823C18.3148 7.76867 18.3345 7.72115 18.3695 7.68611C18.4046 7.65106 18.4521 7.63138 18.5017 7.63138C18.5512 7.63138 18.5988 7.65106 18.6338 7.68611C18.6688 7.72115 18.6885 7.76867 18.6885 7.81823V15.3858C18.6885 15.4353 18.6688 15.4829 18.6338 15.5179C18.5988 15.5529 18.5512 15.5726 18.5017 15.5726" />
</g>
<g opacity="0.2">
<path d="M11.9687 19.3279C11.9191 19.3279 11.8716 19.3082 11.8365 19.2732C11.8015 19.2381 11.7818 19.1906 11.7818 19.1411V4.0447C11.7818 3.99515 11.8015 3.94762 11.8365 3.91258C11.8716 3.87754 11.9191 3.85785 11.9687 3.85785C12.0182 3.85785 12.0657 3.87754 12.1008 3.91258C12.1358 3.94762 12.1555 3.99515 12.1555 4.0447V19.1411C12.1555 19.1906 12.1358 19.2381 12.1008 19.2732C12.0657 19.3082 12.0182 19.3279 11.9687 19.3279Z" />
</g>
</svg>
