<svg width="14" height="14" viewBox="0 0 14 14" fill="none" xmlns="http://www.w3.org/2000/svg">
  <path id="Event" fill-rule="evenodd" clip-rule="evenodd" d="M3.35639 0C3.11476 0 2.91889 0.195875 2.91889 0.4375V1.24141H1.75C0.783502 1.24141 0 2.02491 0 2.99141V12.2495C0 13.216 0.783502 13.9995 1.75 13.9995H12.25C13.2165 13.9995 14 13.216 14 12.2495V2.99141C14 2.02491 13.2165 1.24141 12.25 1.24141H11.0812V0.4375C11.0812 0.195875 10.8853 0 10.6437 0H9.68083C9.4392 0 9.24333 0.195875 9.24333 0.4375V1.24141H4.75673V0.4375C4.75673 0.195875 4.56085 0 4.31923 0H3.35639ZM12.8107 5.13698H1.18911V11.8829C1.18911 12.3662 1.58086 12.7579 2.06411 12.7579H11.9357C12.419 12.7579 12.8107 12.3662 12.8107 11.8829V5.13698ZM2.69222 7.28268C2.69222 6.97202 2.94406 6.72018 3.25472 6.72018H4.28357C4.59423 6.72018 4.84607 6.97202 4.84607 7.28268V7.83768C4.84607 8.14834 4.59423 8.40018 4.28357 8.40018H3.25472C2.94406 8.40018 2.69222 8.14834 2.69222 7.83768V7.28268ZM3.19847 9.51927C2.91888 9.51927 2.69222 9.74593 2.69222 10.0255V10.693C2.69222 10.9726 2.91888 11.1993 3.19847 11.1993H4.33982C4.61941 11.1993 4.84607 10.9726 4.84607 10.693V10.0255C4.84607 9.74593 4.61941 9.51927 4.33982 9.51927H3.19847ZM5.923 7.22643C5.923 6.94684 6.14965 6.72018 6.42925 6.72018H7.57059C7.85019 6.72018 8.07684 6.94684 8.07684 7.22643V7.89393C8.07684 8.17353 7.85019 8.40018 7.57059 8.40018H6.42925C6.14965 8.40018 5.923 8.17353 5.923 7.89393V7.22643ZM6.42925 9.51927C6.14965 9.51927 5.923 9.74593 5.923 10.0255V10.693C5.923 10.9726 6.14965 11.1993 6.42925 11.1993H7.57059C7.85019 11.1993 8.07684 10.9726 8.07684 10.693V10.0255C8.07684 9.74593 7.85019 9.51927 7.57059 9.51927H6.42925ZM9.15378 7.22643C9.15378 6.94684 9.38043 6.72018 9.66003 6.72018H10.8014C11.081 6.72018 11.3076 6.94684 11.3076 7.22643V7.89393C11.3076 8.17353 11.081 8.40018 10.8014 8.40018H9.66003C9.38043 8.40018 9.15378 8.17353 9.15378 7.89393V7.22643ZM9.66003 9.51927C9.38043 9.51927 9.15378 9.74593 9.15378 10.0255V10.693C9.15378 10.9726 9.38043 11.1993 9.66003 11.1993H10.8014C11.081 11.1993 11.3076 10.9726 11.3076 10.693V10.0255C11.3076 9.74593 11.081 9.51927 10.8014 9.51927H9.66003Z" fill="currentColor" />
</svg>
